<?xml version="1.0" encoding="UTF-8" standalone="no"?>
<svg
   xmlns:dc="http://purl.org/dc/elements/1.1/"
   xmlns:cc="http://creativecommons.org/ns#"
   xmlns:rdf="http://www.w3.org/1999/02/22-rdf-syntax-ns#"
   xmlns:svg="http://www.w3.org/2000/svg"
   xmlns="http://www.w3.org/2000/svg"
   xmlns:sodipodi="http://sodipodi.sourceforge.net/DTD/sodipodi-0.dtd"
   xmlns:inkscape="http://www.inkscape.org/namespaces/inkscape"
   xml:space="preserve"
   onload="GbdaeL(evt)"
   viewBox="0 0 530.64558 548.90047"
   id="svg2"
   version="1.1"
   inkscape:version="0.48.3.1 r9886"
   width="100%"
   height="100%"
   sodipodi:docname="graph.svg"
   inkscape:export-filename="/home/levhita/Escritorio/graph.png"
   inkscape:export-xdpi="90"
   inkscape:export-ydpi="90"><metadata
   id="metadata226"><rdf:RDF><cc:Work
       rdf:about=""><dc:format>image/svg+xml</dc:format><dc:type
         rdf:resource="http://purl.org/dc/dcmitype/StillImage" /><dc:title></dc:title></cc:Work></rdf:RDF></metadata><defs
   id="defs224">




























































</defs><sodipodi:namedview
   pagecolor="#ffffff"
   bordercolor="#666666"
   borderopacity="1"
   objecttolerance="10"
   gridtolerance="10"
   guidetolerance="10"
   inkscape:pageopacity="1"
   inkscape:pageshadow="2"
   inkscape:window-width="1278"
   inkscape:window-height="934"
   id="namedview222"
   showgrid="false"
   showguides="false"
   inkscape:guide-bbox="true"
   inkscape:snap-global="true"
   fit-margin-top="30"
   fit-margin-left="30"
   fit-margin-right="30"
   fit-margin-bottom="30"
   inkscape:zoom="0.72085184"
   inkscape:cx="196.7514"
   inkscape:cy="198.11988"
   inkscape:window-x="2343"
   inkscape:window-y="117"
   inkscape:window-maximized="0"
   inkscape:current-layer="svg2"><sodipodi:guide
     orientation="0,1"
     position="294.16889,168.67405"
     id="guide3334" /></sodipodi:namedview>
<script
   type="text/ecmascript"
   id="script4">
var Gbdaesd;
GbdaeRA = [&quot;r0&quot;];
function GbdaeL(evt) { Gbdaesd = evt.getCurrentNode().getOwnerDocument();}
function GbdaeM(O, V){
var ss,so;for(i = 0;i &lt; GbdaeRA.length; i++){
so = Gbdaesd.getElementById(O + GbdaeRA[i]);
if (so != null){
ss = so.getStyle();
if (V == 1) ss.setProperty ('visibility', 'visible');
else ss.setProperty ('visibility', 'hidden');}}
return true; }
</script>

<path
   d="m 93.145585,306.02834 -3,0 m 3,-135 -3,0 m 3,135 406.999995,0 m -406.999995,-135 406.999995,0"
   style="fill:none;stroke:#000000;stroke-width:1;stroke-opacity:0.27099998"
   id="path8"
   inkscape:connector-curvature="0" />
<path
   d="m 93.145585,238.02834 406.999995,0 m -406.999995,135 -6,0 m 6,-135 -6,0 m 6,-135 -6,0 m 42.999995,270 0,-270 m 37,270 0,-270 m 37,270 0,-270 m 37,270 0,-270 m 37,270 0,-270 m 37,270 0,-270 m 37,270 0,-270 m 37,270 0,-270 m 37,270 0,-270 m 37,270 0,-270 m -351,270 0,6 m 37,-6 0,6 m 37,-6 0,6 m 37,-6 0,6 m 37,-6 0,6 m 37,-6 0,6 m 37,-6 0,6 m 37,-6 0,6 m 37,-6 0,6 m 37,-6 0,6 m 37,-6 0,6 m -388.999995,-6 406.999995,0 m -406.999995,0 0,-270"
   style="fill:none;stroke:#000000;stroke-width:1"
   id="path10"
   inkscape:connector-curvature="0" />
<g
   id="GbdaeR11"
   onmouseover="GbdaeM('GbdaeR11',1)"
   onmouseout="GbdaeM('GbdaeR11',0)"
   style="fill:#3465a4"
   transform="translate(38.145585,56.028337)">
<path
   d="m 60,47 28,0 0,270 -28,0 0,-270 z"
   style="fill:#3465a4;stroke:none"
   id="path13"
   inkscape:connector-curvature="0" />
</g>
<g
   id="GbdaeR12"
   onmouseover="GbdaeM('GbdaeR12',1)"
   onmouseout="GbdaeM('GbdaeR12',0)"
   style="fill:#3465a4"
   transform="translate(38.145585,56.028337)">
<path
   d="m 97,47 28,0 0,270 -28,0 0,-270 z"
   style="fill:#3465a4;stroke:none"
   id="path16"
   inkscape:connector-curvature="0" />
</g>
<g
   id="GbdaeR13"
   onmouseover="GbdaeM('GbdaeR13',1)"
   onmouseout="GbdaeM('GbdaeR13',0)"
   style="fill:#3465a4"
   transform="translate(38.145585,56.028337)">
<path
   d="m 134,149 28,0 0,168 -28,0 0,-168 z"
   style="fill:#3465a4;stroke:none"
   id="path19"
   inkscape:connector-curvature="0" />
</g>
<g
   id="GbdaeR14"
   onmouseover="GbdaeM('GbdaeR14',1)"
   onmouseout="GbdaeM('GbdaeR14',0)"
   style="fill:#3465a4"
   transform="translate(38.145585,56.028337)">
<path
   d="m 171,182 28,0 0,135 -28,0 0,-135 z"
   style="fill:#3465a4;stroke:none"
   id="path22"
   inkscape:connector-curvature="0" />
</g>
<g
   id="GbdaeR15"
   onmouseover="GbdaeM('GbdaeR15',1)"
   onmouseout="GbdaeM('GbdaeR15',0)"
   style="fill:#3465a4"
   transform="translate(38.145585,56.028337)">
<path
   d="m 208,182 28,0 0,135 -28,0 0,-135 z"
   style="fill:#3465a4;stroke:none"
   id="path25"
   inkscape:connector-curvature="0" />
</g>
<g
   id="GbdaeR16"
   onmouseover="GbdaeM('GbdaeR16',1)"
   onmouseout="GbdaeM('GbdaeR16',0)"
   style="fill:#3465a4"
   transform="translate(38.145585,56.028337)">
<path
   d="m 245,250 28,0 0,67 -28,0 0,-67 z"
   style="fill:#3465a4;stroke:none"
   id="path28"
   inkscape:connector-curvature="0" />
</g>
<g
   id="GbdaeR17"
   onmouseover="GbdaeM('GbdaeR17',1)"
   onmouseout="GbdaeM('GbdaeR17',0)"
   style="fill:#3465a4"
   transform="translate(38.145585,56.028337)">
<path
   d="m 282,284 28,0 0,33 -28,0 0,-33 z"
   style="fill:#3465a4;stroke:none"
   id="path31"
   inkscape:connector-curvature="0" />
</g>
<g
   id="GbdaeR18"
   onmouseover="GbdaeM('GbdaeR18',1)"
   onmouseout="GbdaeM('GbdaeR18',0)"
   style="fill:#3465a4"
   transform="translate(38.145585,56.028337)">
<path
   d="m 319,284 28,0 0,33 -28,0 0,-33 z"
   style="fill:#3465a4;stroke:none"
   id="path34"
   inkscape:connector-curvature="0" />
</g>
<g
   id="GbdaeR19"
   onmouseover="GbdaeM('GbdaeR19',1)"
   onmouseout="GbdaeM('GbdaeR19',0)"
   style="fill:#3465a4"
   transform="translate(38.145585,56.028337)">
<path
   d="m 356,284 28,0 0,33 -28,0 0,-33 z"
   style="fill:#3465a4;stroke:none"
   id="path37"
   inkscape:connector-curvature="0" />
</g>
<g
   id="GbdaeR20"
   onmouseover="GbdaeM('GbdaeR20',1)"
   onmouseout="GbdaeM('GbdaeR20',0)"
   style="fill:#3465a4"
   transform="translate(38.145585,56.028337)">
<path
   d="m 393,284 28,0 0,33 -28,0 0,-33 z"
   style="fill:#3465a4;stroke:none"
   id="path40"
   inkscape:connector-curvature="0" />
</g>
<path
   inkscape:connector-curvature="0"
   id="path43"
   style="fill:#009933;stroke:none"
   d="m 468.14558,372.02834 28,0 0,1 -28,0 0,-1 z" />
<path
   d="m 93.145585,373.02834 406.999995,0 m -406.999995,-270 406.999995,0 m -406.999995,270 0,-270 m 406.999995,270 0,-270"
   style="fill:none;stroke:#000000;stroke-width:1"
   id="path45"
   inkscape:connector-curvature="0" />



<text
   sodipodi:linespacing="125%"
   id="text58"
   style="font-size:22px;font-style:normal;font-variant:normal;font-weight:normal;font-stretch:normal;text-align:start;line-height:125%;writing-mode:lr-tb;text-anchor:start;fill:#000000;font-family:Droid Sans;-inkscape-font-specification:Droid Sans"
   y="289.29163"
   x="-414.81784"
   transform="matrix(0.5,-0.8660254,0.8660254,0.5,0,0)"><tspan
     id="tspan3223"
     style="font-size:22px;font-style:normal;font-variant:normal;font-weight:normal;font-stretch:normal;text-align:start;line-height:125%;writing-mode:lr-tb;text-anchor:start;font-family:Droid Sans;-inkscape-font-specification:Droid Sans">Comfort Zone</tspan></text>

<text
   sodipodi:linespacing="125%"
   id="text65"
   style="font-size:22px;font-style:normal;font-variant:normal;font-weight:normal;font-stretch:normal;text-align:start;line-height:125%;writing-mode:lr-tb;text-anchor:start;fill:#000000;font-family:Droid Sans;-inkscape-font-specification:Droid Sans"
   y="321.38083"
   x="-384.39801"
   transform="matrix(0.5,-0.8660254,0.8660254,0.5,0,0)"><tspan
     id="tspan3227"
     style="font-size:22px;font-style:normal;font-variant:normal;font-weight:normal;font-stretch:normal;text-align:start;line-height:125%;writing-mode:lr-tb;text-anchor:start;font-family:Droid Sans;-inkscape-font-specification:Droid Sans">Test, Explore</tspan></text>

<text
   id="text72"
   style="font-size:14.92835712px;font-style:normal;font-variant:normal;font-weight:normal;font-stretch:normal;text-align:start;line-height:125%;writing-mode:lr-tb;text-anchor:start;fill:#000000;font-family:Droid Sans;-inkscape-font-specification:Droid Sans"
   y="352.80667"
   x="-361.54077"
   transform="matrix(0.5,-0.8660254,0.8660254,0.5,0,0)"
   sodipodi:linespacing="125%">Not Good</text>
<text
   id="text78"
   style="font-size:14.92835712px;font-style:normal;font-variant:normal;font-weight:normal;font-stretch:normal;text-align:start;line-height:125%;writing-mode:lr-tb;text-anchor:start;fill:#000000;font-family:Droid Sans;-inkscape-font-specification:Droid Sans"
   y="352.88412"
   x="-291.39023"
   transform="matrix(0.5,-0.8660254,0.8660254,0.5,0,0)"
   sodipodi:linespacing="125%">Enough</text>

<text
   id="text85"
   style="font-size:22px;font-style:normal;font-variant:normal;font-weight:normal;font-stretch:normal;text-align:start;line-height:125%;writing-mode:lr-tb;text-anchor:start;fill:#000000;font-family:Droid Sans;-inkscape-font-specification:Droid Sans"
   y="385.27316"
   x="-368.2345"
   transform="matrix(0.5,-0.8660254,0.8660254,0.5,0,0)"
   sodipodi:linespacing="125%">Make Mistakes</text>

<text
   id="text92"
   style="font-size:22px;font-style:normal;font-variant:normal;font-weight:normal;font-stretch:normal;text-align:start;line-height:125%;writing-mode:lr-tb;text-anchor:start;fill:#000000;font-family:Droid Sans;-inkscape-font-specification:Droid Sans"
   y="417.3125"
   x="-316.74664"
   transform="matrix(0.5,-0.8660254,0.8660254,0.5,0,0)"
   sodipodi:linespacing="125%">Persistence</text>

<text
   id="text99"
   style="font-size:16.97057343px;font-style:normal;font-variant:normal;font-weight:normal;font-stretch:normal;text-align:start;line-height:125%;writing-mode:lr-tb;text-anchor:start;fill:#000000;font-family:Droid Sans;-inkscape-font-specification:Droid Sans"
   y="448.98639"
   x="-336.39392"
   transform="matrix(0.5,-0.8660254,0.8660254,0.5,0,0)"
   sodipodi:linespacing="125%">Everyone is</text>
<text
   id="text105"
   style="font-size:16.97057343px;font-style:normal;font-variant:normal;font-weight:normal;font-stretch:normal;text-align:start;line-height:125%;writing-mode:lr-tb;text-anchor:start;fill:#000000;font-family:Droid Sans;-inkscape-font-specification:Droid Sans"
   y="449.01984"
   x="-246.91092"
   transform="matrix(0.5,-0.8660254,0.8660254,0.5,0,0)"
   sodipodi:linespacing="125%">Creative</text>

<text
   id="text112"
   style="font-size:15.41753769px;font-style:normal;font-variant:normal;font-weight:normal;font-stretch:normal;text-align:start;line-height:125%;writing-mode:lr-tb;text-anchor:start;fill:#000000;font-family:Droid Sans;-inkscape-font-specification:Droid Sans"
   y="481.83118"
   x="-320.98932"
   transform="matrix(0.5,-0.8660254,0.8660254,0.5,0,0)"
   sodipodi:linespacing="125%">Vision,</text>
<text
   id="text118"
   style="font-size:15.41753769px;font-style:normal;font-variant:normal;font-weight:normal;font-stretch:normal;text-align:start;line-height:125%;writing-mode:lr-tb;text-anchor:start;fill:#000000;font-family:Droid Sans;-inkscape-font-specification:Droid Sans"
   y="481.91022"
   x="-275.0535"
   transform="matrix(0.5,-0.8660254,0.8660254,0.5,0,0)"
   sodipodi:linespacing="125%">Integrity, Proud</text>

<text
   id="text125"
   style="font-size:12.06617069px;font-style:normal;font-variant:normal;font-weight:normal;font-stretch:normal;text-align:start;line-height:125%;writing-mode:lr-tb;text-anchor:start;fill:#000000;font-family:Droid Sans;-inkscape-font-specification:Droid Sans"
   y="512.27405"
   x="-299.17056"
   transform="matrix(0.5,-0.8660254,0.8660254,0.5,0,0)"
   sodipodi:linespacing="125%">Revolutionary,</text>
<text
   id="text131"
   style="font-size:12.06617069px;font-style:normal;font-variant:normal;font-weight:normal;font-stretch:normal;text-align:start;line-height:125%;writing-mode:lr-tb;text-anchor:start;fill:#000000;font-family:Droid Sans;-inkscape-font-specification:Droid Sans"
   y="512.32227"
   x="-219.71675"
   transform="matrix(0.5,-0.8660254,0.8660254,0.5,0,0)"
   sodipodi:linespacing="125%">Transgressive</text>

<text
   id="text138"
   style="font-size:22px;font-style:normal;font-variant:normal;font-weight:normal;font-stretch:normal;text-align:start;line-height:125%;writing-mode:lr-tb;text-anchor:start;fill:#000000;font-family:Droid Sans;-inkscape-font-specification:Droid Sans"
   y="545.65051"
   x="-263.84454"
   transform="matrix(0.5,-0.8660254,0.8660254,0.5,0,0)"
   sodipodi:linespacing="125%">Craftmanship</text>

<text
   id="text151"
   style="font-size:22px;font-style:normal;font-variant:normal;font-weight:normal;font-stretch:normal;text-align:start;line-height:125%;writing-mode:lr-tb;text-anchor:start;fill:#000000;font-family:Droid Sans;-inkscape-font-specification:Droid Sans"
   y="578.263"
   x="-218.52098"
   transform="matrix(0.5,-0.8660254,0.8660254,0.5,0,0)"
   sodipodi:linespacing="125%">Inspiration</text>

<text
   id="text158"
   style="font-size:22px;font-style:normal;font-variant:normal;font-weight:normal;font-stretch:normal;text-align:start;line-height:125%;writing-mode:lr-tb;text-anchor:start;fill:#000000;font-family:Droid Sans;-inkscape-font-specification:Droid Sans"
   y="610.70447"
   x="-244.31157"
   transform="matrix(0.5,-0.8660254,0.8660254,0.5,0,0)"
   sodipodi:linespacing="125%">Transformation</text>

<g
   id="g160"
   onmouseover="GbdaeM('GbdaeR11',1)"
   onmouseout="GbdaeM('GbdaeR11',0)"
   transform="translate(38.145585,56.028337)">
<text
   x="67"
   y="39"
   style="font-size:14px;font-weight:bold;fill:#000000;font-family:CF Helvetica Bold"
   id="text162">10</text>

</g>
<g
   id="g164"
   onmouseover="GbdaeM('GbdaeR12',1)"
   onmouseout="GbdaeM('GbdaeR12',0)"
   transform="translate(38.145585,56.028337)">
<text
   x="104"
   y="39"
   style="font-size:14px;font-weight:bold;fill:#000000;font-family:CF Helvetica Bold"
   id="text166">10</text>

</g>
<g
   id="g168"
   onmouseover="GbdaeM('GbdaeR13',1)"
   onmouseout="GbdaeM('GbdaeR13',0)"
   transform="translate(38.145585,56.028337)">
<text
   x="145"
   y="141"
   style="font-size:14px;font-weight:bold;fill:#000000;font-family:CF Helvetica Bold"
   id="text170">7</text>

</g>
<g
   id="g172"
   onmouseover="GbdaeM('GbdaeR14',1)"
   onmouseout="GbdaeM('GbdaeR14',0)"
   transform="translate(38.145585,56.028337)">
<text
   x="182"
   y="174"
   style="font-size:14px;font-weight:bold;fill:#000000;font-family:CF Helvetica Bold"
   id="text174">6</text>

</g>
<g
   id="g176"
   onmouseover="GbdaeM('GbdaeR15',1)"
   onmouseout="GbdaeM('GbdaeR15',0)"
   transform="translate(38.145585,56.028337)">
<text
   x="219"
   y="174"
   style="font-size:14px;font-weight:bold;fill:#000000;font-family:CF Helvetica Bold"
   id="text178">6</text>

</g>
<g
   id="g180"
   onmouseover="GbdaeM('GbdaeR16',1)"
   onmouseout="GbdaeM('GbdaeR16',0)"
   transform="translate(38.145585,56.028337)">
<text
   x="256"
   y="242"
   style="font-size:14px;font-weight:bold;fill:#000000;font-family:CF Helvetica Bold"
   id="text182">4</text>

</g>
<g
   id="g184"
   onmouseover="GbdaeM('GbdaeR17',1)"
   onmouseout="GbdaeM('GbdaeR17',0)"
   transform="translate(38.145585,56.028337)">
<text
   x="293"
   y="276"
   style="font-size:14px;font-weight:bold;fill:#000000;font-family:CF Helvetica Bold"
   id="text186">3</text>

</g>
<g
   id="g188"
   onmouseover="GbdaeM('GbdaeR18',1)"
   onmouseout="GbdaeM('GbdaeR18',0)"
   transform="translate(38.145585,56.028337)">
<text
   x="330"
   y="276"
   style="font-size:14px;font-weight:bold;fill:#000000;font-family:CF Helvetica Bold"
   id="text190">3</text>

</g>
<g
   id="g192"
   onmouseover="GbdaeM('GbdaeR19',1)"
   onmouseout="GbdaeM('GbdaeR19',0)"
   transform="translate(38.145585,56.028337)">
<text
   x="367"
   y="276"
   style="font-size:14px;font-weight:bold;fill:#000000;font-family:CF Helvetica Bold"
   id="text194">3</text>

</g>
<g
   id="g196"
   onmouseover="GbdaeM('GbdaeR20',1)"
   onmouseout="GbdaeM('GbdaeR20',0)"
   transform="translate(38.145585,56.028337)">
<text
   x="404"
   y="276"
   style="font-size:14px;font-weight:bold;fill:#000000;font-family:CF Helvetica Bold"
   id="text198">3</text>

</g>
<g
   id="g200"
   onmouseover="GbdaeM('GbdaeR21',1)"
   onmouseout="GbdaeM('GbdaeR21',0)"
   transform="translate(38.145585,56.028337)">
<text
   x="441"
   y="309"
   style="font-size:14px;font-weight:bold;fill:#000000;font-family:CF Helvetica Bold"
   id="text202">2</text>

</g>

<g
   id="GbdaeR23"
   onmouseover="GbdaeM('GbdaeR23',1)"
   onmouseout="GbdaeM('GbdaeR23',0)"
   transform="translate(-123.53463,37.390625)">
<text
   x="260"
   y="23"
   style="font-size:14px;line-height:125%;fill:#000000;font-family:CF Helvetica"
   id="text208"
   sodipodi:linespacing="125%"><tspan
     style="font-size:40px;font-style:normal;font-variant:normal;font-weight:bold;font-stretch:normal;text-align:start;line-height:125%;writing-mode:lr-tb;text-anchor:start;font-family:Droid Sans;-inkscape-font-specification:Droid Sans Bold"
     id="tspan3211">On Creativity</tspan></text>

</g>

<g
   id="GbdaeR25"
   onmouseover="GbdaeM('GbdaeR25',1)"
   onmouseout="GbdaeM('GbdaeR25',0)"
   transform="matrix(3.0367637,0,0,3.0367637,11.059635,-529.55428)">
<g
   transform="translate(18.999374,277.00021)"
   id="g216">
<g
   transform="matrix(0,-1,1,0,0,0)"
   id="g218">
<text
   x="0"
   y="0"
   style="font-size:14px;fill:#000000;font-family:CF Helvetica"
   id="text220"><tspan
     style="font-size:10.53753376px;font-style:normal;font-variant:normal;font-weight:bold;font-stretch:normal;font-family:Droid Sans;-inkscape-font-specification:Droid Sans Bold"
     id="tspan3207">Mentions</tspan></text>

</g></g></g>
</svg>